<svg width="17" height="17" viewBox="0 0 17 17" fill="none" xmlns="http://www.w3.org/2000/svg">
<g clip-path="url(#clip0_824_1530)">
<rect width="17" height="17" fill="white"/>
<path d="M15.8913 9.60887H1.1087L0 8.1306L1.47826 6.65234H15.5217L17 8.1306L15.8913 9.60887Z" fill="#CC4842"/>
<path d="M14.7826 17H2.21739C1.80902 17 1.47826 16.6692 1.47826 16.2609V0.73913C1.47826 0.330761 1.80902 0 2.21739 0H11.087L15.5217 4.43478V16.2609C15.5217 16.6692 15.191 17 14.7826 17Z" fill="#E6E6E6"/>
<path d="M11.087 0V3.69565C11.087 4.10402 11.4177 4.43478 11.8261 4.43478H15.5217L11.087 0Z" fill="#B3B3B3"/>
<path d="M16.2609 14.783H0.73913C0.330761 14.783 0 14.4523 0 14.0439V8.13086H17V14.0439C17 14.4523 16.6692 14.783 16.2609 14.783Z" fill="#E86C60"/>
<path d="M5.61277 12.9354V10.0332H6.40068V12.9354H5.61277Z" fill="white"/>
<path d="M8.32165 10.6343C8.13502 10.6343 7.98941 10.7104 7.88482 10.8634C7.7806 11.016 7.72776 11.2267 7.72776 11.4953C7.72776 12.0541 7.94026 12.3335 8.36526 12.3335C8.49387 12.3335 8.61804 12.3154 8.73852 12.2796C8.859 12.2437 8.97984 12.2008 9.10143 12.1506V12.8132C8.85974 12.9208 8.58552 12.9743 8.27989 12.9743C7.84158 12.9743 7.50602 12.8472 7.27208 12.5933C7.03852 12.3391 6.92213 11.9717 6.92213 11.492C6.92213 11.1916 6.9783 10.9277 7.09174 10.6997C7.20519 10.4716 7.36743 10.2968 7.57956 10.1745C7.79243 10.0522 8.04226 9.99121 8.32904 9.99121C8.6428 9.99121 8.94215 10.0592 9.22819 10.1956L8.98834 10.8128C8.88117 10.7625 8.774 10.7204 8.66682 10.6856C8.55965 10.6513 8.44471 10.6343 8.32165 10.6343Z" fill="white"/>
<path d="M11.5658 12.0534C11.5658 12.2334 11.5204 12.393 11.4287 12.5327C11.3378 12.6724 11.2055 12.7811 11.034 12.8583C10.8622 12.9359 10.66 12.9743 10.4283 12.9743C10.2354 12.9743 10.0732 12.9607 9.94234 12.9337C9.81151 12.9067 9.67477 12.8594 9.5336 12.7918V12.0929C9.6829 12.1698 9.83849 12.2297 9.99999 12.2725C10.1619 12.3154 10.3097 12.3368 10.4446 12.3368C10.561 12.3368 10.6467 12.3169 10.7007 12.2766C10.7546 12.2363 10.7824 12.1842 10.7824 12.1206C10.7824 12.0811 10.7713 12.0464 10.7495 12.0164C10.7273 11.9869 10.6926 11.9566 10.6441 11.9263C10.5961 11.8959 10.4671 11.8335 10.2583 11.7396C10.0687 11.6539 9.92719 11.5704 9.83258 11.4894C9.73797 11.4085 9.66775 11.3161 9.6223 11.2115C9.57647 11.1069 9.55356 10.9835 9.55356 10.8405C9.55356 10.5729 9.65075 10.3645 9.84551 10.2152C10.0395 10.0659 10.3071 9.99121 10.6475 9.99121C10.9476 9.99121 11.2539 10.0607 11.5662 10.1993L11.326 10.8046C11.0551 10.6805 10.8208 10.6184 10.6238 10.6184C10.5218 10.6184 10.4475 10.6361 10.4013 10.6719C10.3548 10.7078 10.3319 10.7521 10.3319 10.8046C10.3319 10.8615 10.3611 10.9125 10.4202 10.9576C10.4789 11.0027 10.639 11.0848 10.8995 11.2038C11.1497 11.3165 11.323 11.4369 11.4206 11.5659C11.5171 11.6953 11.5658 11.8575 11.5658 12.0534Z" fill="white"/>
</g>
<defs>
<clipPath id="clip0_824_1530">
<rect width="17" height="17" fill="white"/>
</clipPath>
</defs>
</svg>
