<svg width="24" height="24" viewBox="0 0 24 24" fill="none" xmlns="http://www.w3.org/2000/svg">
<g clip-path="url(#clip0_1761_424)">
<path d="M22 13.5H2L0.5 11.5L2.5 9.5H21.5L23.5 11.5L22 13.5Z" fill="#CC4842"/>
<path d="M20.5 23.5H3.5C2.9475 23.5 2.5 23.0525 2.5 22.5V1.5C2.5 0.9475 2.9475 0.5 3.5 0.5H15.5L21.5 6.5V22.5C21.5 23.0525 21.0525 23.5 20.5 23.5Z" fill="#E6E6E6"/>
<path d="M15.5 0.5V5.5C15.5 6.0525 15.9475 6.5 16.5 6.5H21.5L15.5 0.5Z" fill="#B3B3B3"/>
<path d="M22.5 20.5H1.5C0.9475 20.5 0.5 20.0525 0.5 19.5V11.5H23.5V19.5C23.5 20.0525 23.0525 20.5 22.5 20.5Z" fill="#E86C60"/>
<path d="M8.09375 18.0007V14.0742H9.15975V18.0007H8.09375Z" fill="white"/>
<path d="M11.7587 14.8876C11.5062 14.8876 11.3092 14.9906 11.1677 15.1976C11.0267 15.4041 10.9552 15.6891 10.9552 16.0526C10.9552 16.8086 11.2427 17.1866 11.8177 17.1866C11.9917 17.1866 12.1597 17.1621 12.3227 17.1136C12.4857 17.0651 12.6492 17.0071 12.8137 16.9391V17.8356C12.4867 17.9811 12.1157 18.0536 11.7022 18.0536C11.1092 18.0536 10.6552 17.8816 10.3387 17.5381C10.0227 17.1941 9.86523 16.6971 9.86523 16.0481C9.86523 15.6416 9.94123 15.2846 10.0947 14.9761C10.2482 14.6676 10.4677 14.4311 10.7547 14.2656C11.0427 14.1001 11.3807 14.0176 11.7687 14.0176C12.1932 14.0176 12.5982 14.1096 12.9852 14.2941L12.6607 15.1291C12.5157 15.0611 12.3707 15.0041 12.2257 14.9571C12.0807 14.9106 11.9252 14.8876 11.7587 14.8876Z" fill="white"/>
<path d="M16.1479 16.8076C16.1479 17.0511 16.0864 17.2671 15.9624 17.4561C15.8394 17.6451 15.6604 17.7921 15.4284 17.8966C15.1959 18.0016 14.9224 18.0536 14.6089 18.0536C14.3479 18.0536 14.1284 18.0351 13.9514 17.9986C13.7744 17.9621 13.5894 17.8981 13.3984 17.8066V16.8611C13.6004 16.9651 13.8109 17.0461 14.0294 17.1041C14.2484 17.1621 14.4484 17.1911 14.6309 17.1911C14.7884 17.1911 14.9044 17.1641 14.9774 17.1096C15.0504 17.0551 15.0879 16.9846 15.0879 16.8986C15.0879 16.8451 15.0729 16.7981 15.0434 16.7576C15.0134 16.7176 14.9664 16.6766 14.9009 16.6356C14.8359 16.5946 14.6614 16.5101 14.3789 16.3831C14.1224 16.2671 13.9309 16.1541 13.8029 16.0446C13.6749 15.9351 13.5799 15.8101 13.5184 15.6686C13.4564 15.5271 13.4254 15.3601 13.4254 15.1666C13.4254 14.8046 13.5569 14.5226 13.8204 14.3206C14.0829 14.1186 14.4449 14.0176 14.9054 14.0176C15.3114 14.0176 15.7259 14.1116 16.1484 14.2991L15.8234 15.1181C15.4569 14.9501 15.1399 14.8661 14.8734 14.8661C14.7354 14.8661 14.6349 14.8901 14.5724 14.9386C14.5094 14.9871 14.4784 15.0471 14.4784 15.1181C14.4784 15.1951 14.5179 15.2641 14.5979 15.3251C14.6774 15.3861 14.8939 15.4971 15.2464 15.6581C15.5849 15.8106 15.8194 15.9736 15.9514 16.1481C16.0819 16.3231 16.1479 16.5426 16.1479 16.8076Z" fill="white"/>
</g>
<defs>
<clipPath id="clip0_1761_424">
<rect width="24" height="24" fill="white"/>
</clipPath>
</defs>
</svg>
