<svg width="48" height="48" viewBox="0 0 48 48" fill="none" xmlns="http://www.w3.org/2000/svg">
<path fill-rule="evenodd" clip-rule="evenodd" d="M28.5646 6.96462C19.1562 4.44365 9.48555 10.027 6.96458 19.4354L5.07176 18.9282C7.87283 8.47445 18.618 2.27072 29.0718 5.0718C39.5255 7.87287 45.7292 18.618 42.9282 29.0718C40.1271 39.5256 29.3819 45.7293 18.9282 42.9282L19.4353 41.0354C28.8437 43.5564 38.5144 37.973 41.0353 28.5646C43.5563 19.1562 37.973 9.48559 28.5646 6.96462Z" fill="#0B0B0C"/>
<path fill-rule="evenodd" clip-rule="evenodd" d="M30.2262 12.8263C24.134 9.30897 16.3439 11.3963 12.8266 17.4885L11.1296 16.5087C15.188 9.47925 24.1765 7.07078 31.206 11.1292C38.2354 15.1877 40.6439 24.1762 36.5854 31.2056C32.527 38.2351 23.5384 40.6435 16.509 36.5851L17.4888 34.888C23.581 38.4053 31.371 36.318 34.8883 30.2258C38.4057 24.1336 36.3183 16.3436 30.2262 12.8263Z" fill="#0B0B0C"/>
<path fill-rule="evenodd" clip-rule="evenodd" d="M31.4397 21.729C30.3193 17.5475 26.0212 15.066 21.8397 16.1864L21.3325 14.2936C26.5594 12.8931 31.932 15.9949 33.3325 21.2218C34.7331 26.4487 31.6312 31.8213 26.4043 33.2218C21.1774 34.6223 15.8049 31.5205 14.4043 26.2936L16.2971 25.7864C17.4176 29.9679 21.7156 32.4494 25.8971 31.329C30.0787 30.2085 32.5601 25.9105 31.4397 21.729Z" fill="#0B0B0C"/>
</svg>
