<svg width="48" height="48" viewBox="0 0 48 48" fill="none" xmlns="http://www.w3.org/2000/svg">
<path fill-rule="evenodd" clip-rule="evenodd" d="M28.5647 6.96462C19.1563 4.44365 9.48567 10.027 6.9647 19.4354L5.07188 18.9282C7.87296 8.47445 18.6181 2.27072 29.0719 5.0718C39.5256 7.87287 45.7294 18.618 42.9283 29.0718C40.1272 39.5256 29.382 45.7293 18.9283 42.9282L19.4355 41.0354C28.8439 43.5564 38.5145 37.973 41.0355 28.5646C43.5564 19.1562 37.9731 9.48559 28.5647 6.96462Z" fill="#FBF7F0"/>
<path fill-rule="evenodd" clip-rule="evenodd" d="M30.226 12.8263C24.1339 9.30897 16.3438 11.3963 12.8265 17.4885L11.1294 16.5087C15.1879 9.47925 24.1764 7.07078 31.2058 11.1292C38.2353 15.1877 40.6437 24.1762 36.5853 31.2056C32.5268 38.2351 23.5383 40.6435 16.5089 36.5851L17.4887 34.888C23.5809 38.4053 31.3709 36.318 34.8882 30.2258C38.4055 24.1336 36.3182 16.3436 30.226 12.8263Z" fill="#FBF7F0"/>
<path fill-rule="evenodd" clip-rule="evenodd" d="M31.4398 21.729C30.3194 17.5475 26.0213 15.066 21.8398 16.1864L21.3327 14.2936C26.5595 12.8931 31.9321 15.9949 33.3327 21.2218C34.7332 26.4487 31.6313 31.8213 26.4044 33.2218C21.1776 34.6223 15.805 31.5205 14.4044 26.2936L16.2973 25.7864C17.4177 29.9679 21.7158 32.4494 25.8973 31.329C30.0788 30.2085 32.5603 25.9105 31.4398 21.729Z" fill="#FBF7F0"/>
</svg>
