<svg width="50" height="50" viewBox="0 0 50 50" fill="none" xmlns="http://www.w3.org/2000/svg">
<path d="M25.0001 48.9584C27.8766 48.9584 30.2084 46.6265 30.2084 43.75C30.2084 40.8735 27.8766 38.5417 25.0001 38.5417C22.1236 38.5417 19.7917 40.8735 19.7917 43.75C19.7917 46.6265 22.1236 48.9584 25.0001 48.9584Z" fill="#B3B3B3"/>
<path d="M23.1182 1.13948C15.0505 1.97629 8.45833 8.39419 7.43825 16.4407C6.43463 24.3572 10.6666 31.7023 17.7084 34.8806V40.625H32.2917V34.8806C38.643 32.014 42.7084 25.7579 42.7084 18.75C42.7084 8.36493 33.7231 0.0394937 23.1182 1.13948Z" fill="#EFD358"/>
<path d="M17.7085 39.5834V43.75C17.7085 44.9006 18.6413 45.8334 19.7918 45.8334H30.2085C31.3591 45.8334 32.2918 44.9006 32.2918 43.75V39.5834H17.7085Z" fill="#E6E6E6"/>
<path d="M29.1667 23.9584C28.9001 23.9584 28.6336 23.8566 28.4302 23.6532L25 20.223L21.5698 23.6532C21.1629 24.0601 20.5037 24.0601 20.0968 23.6532L15.9302 19.4865C15.5233 19.0796 15.5233 18.4204 15.9302 18.0135C16.3371 17.6067 16.9963 17.6067 17.4032 18.0135L20.8333 21.4437L24.2635 18.0135C24.6704 17.6067 25.3296 17.6067 25.7365 18.0135L29.1667 21.4437L32.5968 18.0135C33.0037 17.6067 33.6629 17.6067 34.0698 18.0135C34.4767 18.4204 34.4767 19.0796 34.0698 19.4865L29.9032 23.6532C29.6997 23.8566 29.4332 23.9584 29.1667 23.9584Z" fill="#B29930"/>
</svg>
