<svg width="40" height="40" viewBox="0 0 40 40" fill="none" xmlns="http://www.w3.org/2000/svg">
<mask id="mask0_4348_1620" style="mask-type:luminance" maskUnits="userSpaceOnUse" x="6" y="0" width="29" height="39">
<path d="M23.7273 0H8.65909C7.19659 0 6 1.19659 6 2.65909V36.3409C6 37.8034 7.19659 39 8.65909 39H31.7045C33.167 39 34.3636 37.8034 34.3636 36.3409V10.6364L23.7273 0Z" fill="white"/>
</mask>
<g mask="url(#mask0_4348_1620)">
<path d="M8.65909 0C7.19659 0 6 1.19659 6 2.65909V2.88068C6 1.41818 7.19659 0.221591 8.65909 0.221591H23.7273V0H8.65909Z" fill="white" fill-opacity="0.2"/>
</g>
<path d="M24.0888 0L34.0888 10L29.0888 10.9091L24.0888 10L23.1797 5L24.0888 0Z" fill="#188038"/>
<path d="M24.0909 10V0H7.72727C6.22045 0 5 1.22045 5 2.72727V37.2727C5 38.7795 6.22045 40 7.72727 40H31.3636C32.8705 40 34.0909 38.7795 34.0909 37.2727V10H24.0909Z" fill="#34A853"/>
<path d="M10.4531 15.4546V28.6364H28.6349V15.4546H10.4531ZM18.4077 26.3637H12.7259V23.1819H18.4077V26.3637ZM18.4077 20.9091H12.7259V17.7273H18.4077V20.9091ZM26.3622 26.3637H20.6804V23.1819H26.3622V26.3637ZM26.3622 20.9091H20.6804V17.7273H26.3622V20.9091Z" fill="white"/>
</svg>
