<svg width="40" height="40" viewBox="0 0 40 40" fill="none" xmlns="http://www.w3.org/2000/svg">
<rect width="40" height="40" fill="white"/>
<mask id="mask0_3367_196" style="mask-type:luminance" maskUnits="userSpaceOnUse" x="6" y="0" width="29" height="39">
<path d="M23.7273 0H8.65909C7.19659 0 6 1.19659 6 2.65909V36.3409C6 37.8034 7.19659 39 8.65909 39H31.7045C33.167 39 34.3636 37.8034 34.3636 36.3409V10.6364L23.7273 0Z" fill="white"/>
</mask>
<g mask="url(#mask0_3367_196)">
<path d="M23.7273 0H8.65909C7.19659 0 6 1.19659 6 2.65909V36.3409C6 37.8034 7.19659 39 8.65909 39H31.7045C33.167 39 34.3636 37.8034 34.3636 36.3409V10.6364L28.1591 6.20455L23.7273 0Z" fill="#F4B400"/>
</g>
<mask id="mask1_3367_196" style="mask-type:luminance" maskUnits="userSpaceOnUse" x="6" y="0" width="29" height="39">
<path d="M23.7273 0H8.65909C7.19659 0 6 1.19659 6 2.65909V36.3409C6 37.8034 7.19659 39 8.65909 39H31.7045C33.167 39 34.3636 37.8034 34.3636 36.3409V10.6364L23.7273 0Z" fill="white"/>
</mask>
<g mask="url(#mask1_3367_196)">
<path d="M25.946 17.7275H14.4233C13.692 17.7275 13.0938 18.3258 13.0938 19.0571V30.5798C13.0938 31.3111 13.692 31.9094 14.4233 31.9094H25.946C26.6773 31.9094 27.2756 31.3111 27.2756 30.5798V19.0571C27.2756 18.3258 26.6773 17.7275 25.946 17.7275ZM25.5028 27.9207H14.8665V21.7162H25.5028V27.9207Z" fill="#F1F1F1"/>
</g>
<mask id="mask2_3367_196" style="mask-type:luminance" maskUnits="userSpaceOnUse" x="6" y="0" width="29" height="39">
<path d="M23.7273 0H8.65909C7.19659 0 6 1.19659 6 2.65909V36.3409C6 37.8034 7.19659 39 8.65909 39H31.7045C33.167 39 34.3636 37.8034 34.3636 36.3409V10.6364L23.7273 0Z" fill="white"/>
</mask>
<g mask="url(#mask2_3367_196)">
<path d="M24.5078 9.85889L34.3664 19.7152V10.6367L24.5078 9.85889Z" fill="url(#paint0_linear_3367_196)"/>
</g>
<mask id="mask3_3367_196" style="mask-type:luminance" maskUnits="userSpaceOnUse" x="6" y="0" width="29" height="39">
<path d="M23.7273 0H8.65909C7.19659 0 6 1.19659 6 2.65909V36.3409C6 37.8034 7.19659 39 8.65909 39H31.7045C33.167 39 34.3636 37.8034 34.3636 36.3409V10.6364L23.7273 0Z" fill="white"/>
</mask>
<g mask="url(#mask3_3367_196)">
<path d="M23.7266 0V7.97727C23.7266 9.44642 24.9165 10.6364 26.3857 10.6364H34.3629L23.7266 0Z" fill="#FADA80"/>
</g>
<mask id="mask4_3367_196" style="mask-type:luminance" maskUnits="userSpaceOnUse" x="6" y="0" width="29" height="39">
<path d="M23.7273 0H8.65909C7.19659 0 6 1.19659 6 2.65909V36.3409C6 37.8034 7.19659 39 8.65909 39H31.7045C33.167 39 34.3636 37.8034 34.3636 36.3409V10.6364L23.7273 0Z" fill="white"/>
</mask>
<g mask="url(#mask4_3367_196)">
<path d="M23.7266 0V0.221591L34.1413 10.6364H34.3629L23.7266 0Z" fill="white" fill-opacity="0.1"/>
</g>
<mask id="mask5_3367_196" style="mask-type:luminance" maskUnits="userSpaceOnUse" x="6" y="0" width="29" height="39">
<path d="M23.7273 0H8.65909C7.19659 0 6 1.19659 6 2.65909V36.3409C6 37.8034 7.19659 39 8.65909 39H31.7045C33.167 39 34.3636 37.8034 34.3636 36.3409V10.6364L23.7273 0Z" fill="white"/>
</mask>
<g mask="url(#mask5_3367_196)">
<path d="M8.65909 0C7.19659 0 6 1.19659 6 2.65909V2.88068C6 1.41818 7.19659 0.221591 8.65909 0.221591H23.7273V0H8.65909Z" fill="white" fill-opacity="0.2"/>
</g>
<mask id="mask6_3367_196" style="mask-type:luminance" maskUnits="userSpaceOnUse" x="6" y="0" width="29" height="39">
<path d="M23.7273 0H8.65909C7.19659 0 6 1.19659 6 2.65909V36.3409C6 37.8034 7.19659 39 8.65909 39H31.7045C33.167 39 34.3636 37.8034 34.3636 36.3409V10.6364L23.7273 0Z" fill="white"/>
</mask>
<g mask="url(#mask6_3367_196)">
<path d="M31.7045 38.7782H8.65909C7.19659 38.7782 6 37.5816 6 36.1191V36.3407C6 37.8032 7.19659 38.9998 8.65909 38.9998H31.7045C33.167 38.9998 34.3636 37.8032 34.3636 36.3407V36.1191C34.3636 37.5816 33.167 38.7782 31.7045 38.7782Z" fill="#BF360C" fill-opacity="0.2"/>
</g>
<mask id="mask7_3367_196" style="mask-type:luminance" maskUnits="userSpaceOnUse" x="6" y="0" width="29" height="39">
<path d="M23.7273 0H8.65909C7.19659 0 6 1.19659 6 2.65909V36.3409C6 37.8034 7.19659 39 8.65909 39H31.7045C33.167 39 34.3636 37.8034 34.3636 36.3409V10.6364L23.7273 0Z" fill="white"/>
</mask>
<g mask="url(#mask7_3367_196)">
<path d="M26.3857 10.6361C24.9165 10.6361 23.7266 9.4462 23.7266 7.97705V8.19864C23.7266 9.66779 24.9165 10.8577 26.3857 10.8577H34.3629V10.6361H26.3857Z" fill="#BF360C" fill-opacity="0.1"/>
</g>
<path d="M23.7273 0H8.65909C7.19659 0 6 1.19659 6 2.65909V36.3409C6 37.8034 7.19659 39 8.65909 39H31.7045C33.167 39 34.3636 37.8034 34.3636 36.3409V10.6364L23.7273 0Z" fill="url(#paint1_radial_3367_196)"/>
<defs>
<linearGradient id="paint0_linear_3367_196" x1="517.49" y1="94.4867" x2="517.49" y2="995.633" gradientUnits="userSpaceOnUse">
<stop stop-color="#BF360C" stop-opacity="0.2"/>
<stop offset="1" stop-color="#BF360C" stop-opacity="0.02"/>
</linearGradient>
<radialGradient id="paint1_radial_3367_196" cx="0" cy="0" r="1" gradientUnits="userSpaceOnUse" gradientTransform="translate(95.8574 77.0812) scale(4573.59 4573.6)">
<stop stop-color="white" stop-opacity="0.1"/>
<stop offset="1" stop-color="white" stop-opacity="0"/>
</radialGradient>
</defs>
</svg>
