<svg width="40" height="40" viewBox="0 0 40 40" fill="none" xmlns="http://www.w3.org/2000/svg">
<g clip-path="url(#clip0_3366_86)">
<rect width="39.8174" height="39.8174" fill="white"/>
<path d="M0 9.95434C0 4.45671 4.45671 0 9.95434 0H29.863C35.3607 0 39.8174 4.45671 39.8174 9.95434V29.863C39.8174 35.3607 35.3607 39.8174 29.863 39.8174H9.95434C4.45671 39.8174 0 35.3607 0 29.863V9.95434Z" fill="#FFDD33"/>
<path fill-rule="evenodd" clip-rule="evenodd" d="M26.471 7.59033H22.8565L25.8685 12.8826L19.2419 7.59033H15.6275L18.9408 14.0588L12.013 7.59033H8.39844L12.013 15.8239L8.39844 32.2895H12.013L18.9408 14.6477L15.6275 32.2895H19.2419L25.8685 13.4715L22.8565 32.2895H26.471L33.0976 11.7064L26.471 7.59033Z" fill="#1C1C1E"/>
</g>
<defs>
<clipPath id="clip0_3366_86">
<rect width="39.8174" height="39.8174" fill="white"/>
</clipPath>
</defs>
</svg>
