<svg width="81" height="81" viewBox="0 0 81 81" fill="none" xmlns="http://www.w3.org/2000/svg">
<path fill-rule="evenodd" clip-rule="evenodd" d="M48.2029 11.7528C32.3263 7.49866 16.007 16.9206 11.7529 32.7972L8.55877 31.9413C13.2856 14.3006 31.4181 3.83184 49.0588 8.55866C66.6995 13.2855 77.1683 31.4179 72.4415 49.0587C67.7146 66.6994 49.5822 77.1682 31.9415 72.4414L32.7973 69.2472C48.674 73.5013 64.9932 64.0794 69.2473 48.2028C73.5015 32.3261 64.0796 16.0069 48.2029 11.7528Z" fill="#0B0B0C"/>
<path fill-rule="evenodd" clip-rule="evenodd" d="M51.0066 21.6443C40.7261 15.7088 27.5804 19.2312 21.6449 29.5118L18.7811 27.8584C25.6297 15.9962 40.7978 11.9319 52.66 18.7805C64.5222 25.6292 68.5865 40.7973 61.7378 52.6595C54.8892 64.5216 39.7211 68.5859 27.8589 61.7373L29.5123 58.8735C39.7929 64.809 52.9386 61.2866 58.8741 51.0061C64.8095 40.7255 61.2872 27.5798 51.0066 21.6443Z" fill="#0B0B0C"/>
<path fill-rule="evenodd" clip-rule="evenodd" d="M53.0547 36.6676C51.164 29.6113 43.911 25.4238 36.8547 27.3145L35.9988 24.1204C44.8192 21.757 53.8854 26.9914 56.2488 35.8117C58.6122 44.6321 53.3778 53.6983 44.5575 56.0617C35.7371 58.4251 26.6709 53.1908 24.3075 44.3704L27.5016 43.5145C29.3923 50.5708 36.6453 54.7583 43.7016 52.8676C50.7579 50.9769 54.9454 43.7239 53.0547 36.6676Z" fill="#0B0B0C"/>
</svg>
